<?xml version="1.0" encoding="utf-8"?>
<svg version="1.1" xmlns="http://www.w3.org/2000/svg" xmlns:xlink="http://www.w3.org/1999/xlink" x="0px" y="0px"
	 viewBox="0 0 800 800" style="enable-background:new 0 0 800 800;" xml:space="preserve">
<style type="text/css">
	.st0{fill:#057600;}
	.st1{clip-path:url(#SVGID_2_);}
	.st2{fill:#055A00;}
	.st3{fill:#BEFFBE;}
	.st4{clip-path:url(#SVGID_4_);}
	.st5{fill:#FFFFFF;}
	.st6{fill:none;stroke:#0D0D0D;stroke-width:10;stroke-miterlimit:10;}
	.st7{fill:#808080;}
	.st8{clip-path:url(#SVGID_6_);fill:#BFBFBF;}
	.st9{fill:none;stroke:#FFA91F;stroke-width:8;stroke-miterlimit:10;}
	.st10{clip-path:url(#SVGID_8_);fill:#BFBFBF;}
	.st11{fill:#FFA91F;}
	.st12{clip-path:url(#SVGID_10_);fill:#FCFF55;}
	.st13{fill:none;stroke:#0D0D0D;stroke-width:2;stroke-miterlimit:10;}
</style>
<g id="Layer_1">
	<g>
		<circle class="st0" cx="400" cy="400" r="350"/>
	</g>
	<g>
		<defs>
			<circle id="SVGID_1_" cx="400" cy="400" r="350"/>
		</defs>
		<clipPath id="SVGID_2_">
			<use xlink:href="#SVGID_1_"  style="overflow:visible;"/>
		</clipPath>
		<g class="st1">
			<circle class="st2" cx="410" cy="410" r="350"/>
		</g>
	</g>
</g>
<g id="Layer_2">
	<g>
		<circle class="st3" cx="400" cy="400" r="325"/>
	</g>
	<g>
		<defs>
			<circle id="SVGID_3_" cx="300" cy="300" r="400"/>
		</defs>
		<clipPath id="SVGID_4_">
			<use xlink:href="#SVGID_3_"  style="overflow:visible;"/>
		</clipPath>
		<g class="st4">
			<circle class="st5" cx="400" cy="400" r="325"/>
		</g>
	</g>
</g>
<g id="Layer_7">
	<line class="st6" x1="400" y1="706" x2="400.5" y2="683"/>
	<line class="st6" x1="552.8" y1="665.3" x2="541.8" y2="645.2"/>
	<line class="st6" x1="664.5" y1="553.5" x2="644.8" y2="541.6"/>
	<line class="st6" x1="705.6" y1="401" x2="682.6" y2="400.5"/>
	<line class="st6" x1="664.7" y1="248.2" x2="644.5" y2="259.2"/>
	<line class="st6" x1="553.1" y1="136.5" x2="541.2" y2="156.2"/>
	<line class="st6" x1="400.4" y1="95.4" x2="399.9" y2="118.4"/>
	<line class="st6" x1="247.5" y1="136.1" x2="258.6" y2="156.3"/>
	<line class="st6" x1="135.3" y1="248.2" x2="155" y2="260.1"/>
	<line class="st6" x1="94.7" y1="401.2" x2="117.7" y2="401.7"/>
	<line class="st6" x1="136.3" y1="554.2" x2="156.5" y2="543.1"/>
	<line class="st6" x1="248.5" y1="665.7" x2="260.5" y2="646"/>
</g>
<g id="Layer_3">
	<path class="st7" d="M285,390.4c41.9,0.1,83.8,0.2,125.7,0.3c2.2,0,3.5,1.2,4.4,3.4c0.8,2,1.2,4.2,1.3,6.4
		c0.3,3.9,0.2,7.8-0.7,11.6c-0.3,1.1-0.7,2.2-1.2,3.2c-0.7,1.4-1.8,2.1-3.3,2.1c-10.6-0.1-21.3-0.1-31.9-0.1
		c-37.3-0.1-74.5-0.2-111.8-0.3c-0.3,0-0.7,0-1,0c-2.4,0-3.6,1.2-3.9,4c-0.1,1.5-0.1,3-0.1,4.5c0,1.4-0.1,1.5-1.3,1.5
		c-26.2-0.1-52.4-0.2-78.6-0.2c-5.2,0-10-1.5-14.5-4.4c-5.5-3.6-10.3-8.4-13.5-14.9c-1.5-3.1-2.5-6.4-2.4-10
		c0.1-4.4,2.4-7.1,6.1-7.4c0.6,0,1.2,0,1.8,0C201.7,390.1,243.4,390.3,285,390.4z"/>
	<g>
		<defs>
			<path id="SVGID_5_" d="M284.2,387.4c41.9,0.1,83.8,0.2,125.7,0.3c2.2,0,3.5,1.2,4.4,3.4c0.8,2,1.2,4.2,1.3,6.4
				c0.3,3.9,0.2,7.8-0.7,11.6c-0.3,1.1-0.7,2.2-1.2,3.2c-0.7,1.4-1.8,2.1-3.3,2.1c-10.6-0.1-21.3-0.1-31.9-0.1
				c-37.3-0.1-74.5-0.2-111.8-0.3c-0.3,0-0.7,0-1,0c-2.4,0-3.6,1.2-3.9,4c-0.1,1.5-0.1,3-0.1,4.5c0,1.4-0.1,1.5-1.3,1.5
				c-26.2-0.1-52.4-0.2-78.6-0.2c-5.2,0-10-1.5-14.5-4.4c-5.5-3.6-10.3-8.4-13.5-14.9c-1.5-3.1-2.5-6.4-2.4-10
				c0.1-4.4,2.4-7.1,6.1-7.4c0.6,0,1.2,0,1.8,0C200.9,387.1,242.5,387.2,284.2,387.4z"/>
		</defs>
		<clipPath id="SVGID_6_">
			<use xlink:href="#SVGID_5_"  style="overflow:visible;"/>
		</clipPath>
		<path class="st8" d="M283.3,389.4c41.9,0.1,83.8,0.2,125.7,0.3c2.2,0,3.5,1.2,4.4,3.4c0.8,2,1.2,4.2,1.3,6.4
			c0.3,3.9,0.2,7.8-0.7,11.6c-0.3,1.1-0.7,2.2-1.2,3.2c-0.7,1.4-1.8,2.1-3.3,2.1c-10.6-0.1-21.3-0.1-31.9-0.1
			c-37.3-0.1-74.5-0.2-111.8-0.3c-0.3,0-0.7,0-1,0c-2.4,0-3.6,1.2-3.9,4c-0.1,1.5-0.1,3-0.1,4.5c0,1.4-0.1,1.5-1.3,1.5
			c-26.2-0.1-52.4-0.2-78.6-0.2c-5.2,0-10-1.5-14.5-4.4c-5.5-3.6-10.3-8.4-13.5-14.9c-1.5-3.1-2.5-6.4-2.4-10
			c0.1-4.4,2.4-7.1,6.1-7.4c0.6,0,1.2,0,1.8,0C200,389.1,241.7,389.2,283.3,389.4z"/>
	</g>
</g>
<g id="Layer_5">
	<line class="st9" x1="342.1" y1="363.8" x2="642.4" y2="557.2"/>
</g>
<g id="Layer_4">
	<path class="st7" d="M387.4,222.5c0-3.9-1.1-7.3-3.4-10.4c-1.3-1.8-2.7-3.5-4.1-5.2c-1.8-2.3-2.7-4.8-2.7-7.9
		c0.1-27.7,0-55.4,0-83.1c0-1.2,0-2.4,0-3.6c0-2,2.1-4.6,4-5c0.6-0.1,1.3,0.1,1.8,0.4c2,1.2,3.2,2.8,3.2,5.4
		c-0.1,20.6,0,41.3-0.1,61.9c0,2,0.6,3.5,2.4,4.4c1.8,1,3.6,1,5.4-0.1c1.5-0.9,2.2-2.3,2.2-4.1c0-20.8,0-41.5-0.1-62.3
		c0-2.7,1.4-4.2,3.4-5.4c0.8-0.5,1.6-0.4,2.3,0c2,1.3,3.3,2.8,3.3,5.5c-0.1,20.7,0,41.3-0.1,62c0,2,0.7,3.5,2.5,4.5
		c1.9,1,3.7,0.9,5.5-0.3c1.3-0.8,2-2,2-3.6c0-1.6,0-43.6,0-63.1c0-2.2,1.7-4.6,3.8-5.2c0.6-0.2,1.4-0.1,1.9,0.2
		c2,1.2,3.3,2.8,3.3,5.5c-0.1,28.7-0.1,57.3,0,86c0,3-0.8,5.5-2.6,7.8c-1.3,1.7-2.7,3.4-4,5.2c-2.4,3.1-3.5,6.6-3.5,10.6
		c0.1,58.3,0,116.6,0.1,174.9c0,0.7,0,1.3,0,2c0,4,0,7.9,0,11.9c0,2.6-1.1,4.1-3.3,5.1c-2.2,1-4.5,1.5-6.9,1.6
		c-3.8,0.3-7.5,0.2-11.2-0.9c-1.1-0.3-2.1-0.8-3.1-1.3c-1.5-0.9-2.2-2.2-2.2-4C387.4,379.9,387.3,253.7,387.4,222.5z"/>
	<g>
		<defs>
			<path id="SVGID_7_" d="M387.4,223.5c0-3.9-1.1-7.3-3.4-10.4c-1.3-1.8-2.7-3.5-4.1-5.2c-1.8-2.3-2.7-4.8-2.7-7.9
				c0.1-27.7,0-55.4,0-83.1c0-1.2,0-2.4,0-3.6c0-2,2.1-4.6,4-5c0.6-0.1,1.3,0.1,1.8,0.4c2,1.2,3.2,2.8,3.2,5.4
				c-0.1,20.6,0,41.3-0.1,61.9c0,2,0.6,3.5,2.4,4.4c1.8,1,3.6,1,5.4-0.1c1.5-0.9,2.2-2.3,2.2-4.1c0-20.8,0-41.5-0.1-62.3
				c0-2.7,1.4-4.2,3.4-5.4c0.8-0.5,1.6-0.4,2.3,0c2,1.3,3.3,2.8,3.3,5.5c-0.1,20.7,0,41.3-0.1,62c0,2,0.7,3.5,2.5,4.5
				c1.9,1,3.7,0.9,5.5-0.3c1.3-0.8,2-2,2-3.6c0-1.6,0-43.6,0-63.1c0-2.2,1.7-4.6,3.8-5.2c0.6-0.2,1.4-0.1,1.9,0.2
				c2,1.2,3.3,2.8,3.3,5.5c-0.1,28.7-0.1,57.3,0,86c0,3-0.8,5.5-2.6,7.8c-1.3,1.7-2.7,3.4-4,5.2c-2.4,3.1-3.5,6.6-3.5,10.6
				c0.1,58.3,0,116.6,0.1,174.9c0,0.7,0,1.3,0,2c0,4,0,7.9,0,11.9c0,2.6-1.1,4.1-3.3,5.1c-2.2,1-4.5,1.5-6.9,1.6
				c-3.8,0.3-7.5,0.2-11.2-0.9c-1.1-0.3-2.1-0.8-3.1-1.3c-1.5-0.9-2.2-2.2-2.2-4C387.4,380.9,387.3,254.7,387.4,223.5z"/>
		</defs>
		<clipPath id="SVGID_8_">
			<use xlink:href="#SVGID_7_"  style="overflow:visible;"/>
		</clipPath>
		<path class="st10" d="M384.4,221.2c0-3.9-1.1-7.3-3.4-10.4c-1.3-1.8-2.7-3.5-4.1-5.2c-1.8-2.3-2.7-4.8-2.7-7.9
			c0.1-27.7,0-55.4,0-83.1c0-1.2,0-2.4,0-3.6c0-2,2.1-4.6,4-5c0.6-0.1,1.3,0.1,1.8,0.4c2,1.2,3.2,2.8,3.2,5.4
			c-0.1,20.6,0,41.3-0.1,61.9c0,2,0.6,3.5,2.4,4.4c1.8,1,3.6,1,5.4-0.1c1.5-0.9,2.2-2.3,2.2-4.1c0-20.8,0-41.5-0.1-62.3
			c0-2.7,1.4-4.2,3.4-5.4c0.8-0.5,1.6-0.4,2.3,0c2,1.3,3.3,2.8,3.3,5.5c-0.1,20.7,0,41.3-0.1,62c0,2,0.7,3.5,2.5,4.5
			c1.9,1,3.7,0.9,5.5-0.3c1.3-0.8,2-2,2-3.6c0-1.6,0-43.6,0-63.1c0-2.2,1.7-4.6,3.8-5.2c0.6-0.2,1.4-0.1,1.9,0.2
			c2,1.2,3.3,2.8,3.3,5.5c-0.1,28.7-0.1,57.3,0,86c0,3-0.8,5.5-2.6,7.8c-1.3,1.7-2.7,3.4-4,5.2c-2.4,3.1-3.5,6.6-3.5,10.6
			c0.1,58.3,0,116.6,0.1,174.9c0,0.7,0,1.3,0,2c0,4,0,7.9,0,11.9c0,2.6-1.1,4.1-3.3,5.1c-2.2,1-4.5,1.5-6.9,1.6
			c-3.8,0.3-7.5,0.2-11.2-0.9c-1.1-0.3-2.1-0.8-3.1-1.3c-1.5-0.9-2.2-2.2-2.2-4C384.4,378.7,384.3,252.4,384.4,221.2z"/>
	</g>
</g>
<g id="Layer_6">
	<circle class="st11" cx="400.5" cy="400.5" r="24.5"/>
	<g>
		<defs>
			<circle id="SVGID_9_" cx="400.5" cy="400.5" r="24.5"/>
		</defs>
		<clipPath id="SVGID_10_">
			<use xlink:href="#SVGID_9_"  style="overflow:visible;"/>
		</clipPath>
		<circle class="st12" cx="397.5" cy="396.5" r="24.5"/>
	</g>
</g>
<g id="Layer_8">
	<circle class="st13" cx="399.5" cy="400.5" r="350"/>
	<circle class="st13" cx="400" cy="400" r="325"/>
</g>
</svg>
